<svg width="218" height="205" viewBox="0 0 218 205" fill="none" xmlns="http://www.w3.org/2000/svg">
<g filter="url(#filter0_bdi_1643_15976)">
<rect x="39" y="25" width="140" height="140" rx="8.28816" fill="url(#paint0_radial_1643_15976)" shape-rendering="crispEdges"/>
<rect x="39" y="25" width="140" height="140" rx="8.28816" fill="url(#paint1_linear_1643_15976)" fill-opacity="0.3" shape-rendering="crispEdges"/>
</g>
<g clip-path="url(#clip0_1643_15976)">
<path d="M129.832 99.1654V103.332C129.832 114.874 127.065 126.02 121.853 136.024L120.907 137.774L113.628 133.715C118.461 125.049 121.169 115.34 121.469 105.232L121.499 103.332V99.1654H129.832ZM104.832 86.6654H113.165V103.332L113.144 104.911C112.829 116.318 108.904 127.331 101.932 136.365L100.969 137.574L94.5111 132.307C100.871 124.54 104.49 114.891 104.807 104.857L104.832 103.332V86.6654ZM108.999 69.9987C114.524 69.9987 119.823 72.1937 123.73 76.1007C127.637 80.0077 129.832 85.3067 129.832 90.8321H121.499C121.499 87.5169 120.182 84.3374 117.837 81.9932C115.493 79.649 112.314 78.3321 108.999 78.3321C105.683 78.3321 102.504 79.649 100.16 81.9932C97.8156 84.3374 96.4986 87.5169 96.4986 90.8321V103.332C96.4986 112.645 93.082 121.432 87.0361 128.236L86.1528 129.195L80.1195 123.445C84.9943 118.344 87.8455 111.644 88.1403 104.595L88.1653 103.332V90.8321C88.1653 85.3067 90.3602 80.0077 94.2672 76.1007C98.1743 72.1937 103.473 69.9987 108.999 69.9987ZM108.999 53.3321C118.944 53.3321 128.483 57.283 135.515 64.3156C142.548 71.3482 146.499 80.8865 146.499 90.8321V103.332C146.499 110.407 145.657 117.374 144.011 124.124L143.432 126.37L135.39 124.178C137.024 118.19 137.944 112.003 138.132 105.699L138.165 103.332V90.8321C138.165 85.419 136.659 80.1127 133.815 75.5071C130.971 70.9014 126.901 67.1782 122.061 64.7539C117.221 62.3296 111.802 61.3001 106.41 61.7804C101.019 62.2608 95.8671 64.2321 91.532 67.4737L85.5945 61.5321C92.2339 56.2124 100.491 53.3195 108.999 53.3321ZM79.6986 67.4279L85.6403 73.3654C82.0667 78.1289 80.0447 83.8762 79.8486 89.8279L79.832 90.8321L79.8486 99.1654C79.8486 103.832 78.7486 108.345 76.6736 112.403L76.0236 113.611L68.7861 109.478C70.3695 106.707 71.2945 103.615 71.4778 100.382L71.5153 99.1654V90.8321C71.4906 82.3251 74.3784 74.066 79.6986 67.4279Z" fill="#FBFCFF"/>
</g>
<defs>
<filter id="filter0_bdi_1643_15976" x="0.213676" y="0.317794" width="217.573" height="217.573" filterUnits="userSpaceOnUse" color-interpolation-filters="sRGB">
<feFlood flood-opacity="0" result="BackgroundImageFix"/>
<feGaussianBlur in="BackgroundImageFix" stdDeviation="9.95395"/>
<feComposite in2="SourceAlpha" operator="in" result="effect1_backgroundBlur_1643_15976"/>
<feColorMatrix in="SourceAlpha" type="matrix" values="0 0 0 0 0 0 0 0 0 0 0 0 0 0 0 0 0 0 127 0" result="hardAlpha"/>
<feOffset dy="14.1041"/>
<feGaussianBlur stdDeviation="19.3932"/>
<feComposite in2="hardAlpha" operator="out"/>
<feColorMatrix type="matrix" values="0 0 0 0 0 0 0 0 0 0 0 0 0 0 0 0 0 0 0.15 0"/>
<feBlend mode="normal" in2="effect1_backgroundBlur_1643_15976" result="effect2_dropShadow_1643_15976"/>
<feBlend mode="normal" in="SourceGraphic" in2="effect2_dropShadow_1643_15976" result="shape"/>
<feColorMatrix in="SourceAlpha" type="matrix" values="0 0 0 0 0 0 0 0 0 0 0 0 0 0 0 0 0 0 127 0" result="hardAlpha"/>
<feOffset dx="-2.36999" dy="-2.36999"/>
<feGaussianBlur stdDeviation="59.2497"/>
<feComposite in2="hardAlpha" operator="arithmetic" k2="-1" k3="1"/>
<feColorMatrix type="matrix" values="0 0 0 0 1 0 0 0 0 1 0 0 0 0 1 0 0 0 0.02 0"/>
<feBlend mode="normal" in2="shape" result="effect3_innerShadow_1643_15976"/>
</filter>
<radialGradient id="paint0_radial_1643_15976" cx="0" cy="0" r="1" gradientUnits="userSpaceOnUse" gradientTransform="translate(18.7471 73.0889) rotate(29.8359) scale(184.739 182.942)">
<stop stop-opacity="0.5"/>
<stop offset="1" stop-opacity="0.25"/>
</radialGradient>
<linearGradient id="paint1_linear_1643_15976" x1="87.6546" y1="-83.013" x2="289.26" y2="37.3903" gradientUnits="userSpaceOnUse">
<stop stop-color="white"/>
<stop offset="1" stop-color="white" stop-opacity="0"/>
</linearGradient>
<clipPath id="clip0_1643_15976">
<rect width="100" height="100" fill="white" transform="translate(59 45)"/>
</clipPath>
</defs>
</svg>
