<svg width="46" height="46" viewBox="0 0 46 46" fill="none" xmlns="http://www.w3.org/2000/svg">
<path opacity="0.16" d="M1.1001 22.9996C1.1001 10.9046 10.9051 1.09961 23.0001 1.09961C35.0951 1.09961 44.9001 10.9046 44.9001 22.9996C44.9001 35.0946 35.0951 44.8996 23.0001 44.8996C10.9051 44.8996 1.1001 35.0946 1.1001 22.9996Z" stroke="#002107"/>
<path opacity="0.08" d="M6.2002 23.0002C6.2002 13.7218 13.7218 6.2002 23.0002 6.2002C32.2786 6.2002 39.8002 13.7218 39.8002 23.0002C39.8002 32.2786 32.2786 39.8002 23.0002 39.8002C13.7218 39.8002 6.2002 32.2786 6.2002 23.0002Z" fill="#008A36"/>
<path d="M22.9998 32.3327C17.845 32.3327 13.6665 28.1541 13.6665 22.9993C13.6665 17.8445 17.845 13.666 22.9998 13.666C28.1546 13.666 32.3332 17.8446 32.3332 22.9994C32.3332 28.1542 28.1546 32.3327 22.9998 32.3327ZM22.0693 26.7327L28.668 20.1331L27.3482 18.8134L22.0693 24.0932L19.4289 21.4528L18.1092 22.7725L22.0693 26.7327Z" fill="#008A36"/>
</svg>
