<svg width="152" height="40" viewBox="0 0 152 40" fill="none" xmlns="http://www.w3.org/2000/svg">
<path fill-rule="evenodd" clip-rule="evenodd" d="M83.7364 -0.0179443H84.1034H87.9419H88.3092V0.351029V19.887V24.5704V30.356V30.7251H87.9419H84.1034H83.7364V30.356V0.351029V-0.0179443ZM9.11858 26.5457V10.4093H13.9853V6.2153H8.72192C9.03191 5.82653 9.27951 5.39169 9.45652 4.92636C9.78685 4.08264 9.96302 3.00278 9.94608 1.55149V-0.0178421H5.53954V1.6056C5.56891 2.52704 5.38342 3.44261 4.99861 4.27944C4.42323 5.46505 3.19681 6.77615 0.531091 7.40585L0.24707 7.47473V10.4093H4.50171V27.6477C4.50426 28.4632 4.82752 29.2448 5.40121 29.8218C5.97489 30.3985 6.75242 30.7242 7.5641 30.7273H14.0562V26.5457H9.12113H9.11858ZM46.671 10.2863C48.4482 7.73793 50.8082 6.24727 53.6625 6.24727H55.944V10.7045H53.1608C51.2122 10.7045 49.6453 11.3416 48.5363 12.6847C47.4273 14.0277 46.7641 16.1235 46.7641 19.1072V30.7273H42.0981V6.24727H46.671V10.2863ZM146.219 6.24727H150.682L151.211 6.26449L151.017 6.75646L139.365 37.1106L139.081 37L139.115 37.0147L139.36 37.1106C139.03 37.8964 138.482 38.5696 137.78 39.0496C137.079 39.5296 136.255 39.7957 135.406 39.8164H130.241V35.6791H135.247L137.343 30.3534L128.209 6.73924L128.016 6.24727H133.157L133.245 6.49325L139.671 24.5287L146.134 6.49325L146.219 6.24727ZM32.8274 6.24727H33.1947H37.4446V30.7347H33.0553V27.7141C31.3221 30.1395 28.7735 31.2859 25.6524 31.2859C22.4748 31.2859 20.3035 30.3512 18.9717 28.7228C17.64 27.0943 17.1505 24.8214 17.1505 22.2361V6.24727H21.7699V22.6862C21.7699 24.0539 22.1982 25.1485 22.9474 25.8988C23.6965 26.649 24.7956 27.0943 26.2007 27.0943C28.4678 27.0943 30.103 26.3391 31.1874 25.0994C32.2718 23.8596 32.8274 22.0959 32.8274 20.0223V6.24727ZM116.336 5.6962C112.882 5.6962 110.035 6.9753 108.057 9.23833C106.079 11.5014 105 14.6991 105 18.5094C105 22.3197 106.119 25.5396 108.128 27.7805C110.138 30.0215 113.024 31.2782 116.473 31.2782C119.218 31.2782 121.575 30.4862 123.418 29.0275C125.262 27.5689 126.567 25.4658 127.247 22.878L127.369 22.4131H122.613L122.525 22.6591C121.477 25.5592 119.321 27.1458 116.473 27.1458C114.427 27.1458 112.85 26.3735 111.729 25.0796C110.669 23.8497 110.003 22.1426 109.759 20.123H127.404L127.441 19.7959C127.48 19.3699 127.496 18.942 127.487 18.5143C127.487 14.709 126.454 11.5038 124.527 9.24571C122.601 6.98758 119.79 5.6962 116.336 5.6962ZM109.92 15.8897C110.246 14.1678 110.921 12.6747 111.923 11.6121C112.49 11.0154 113.174 10.5447 113.933 10.2303C114.692 9.91595 115.508 9.76488 116.329 9.78687C117.11 9.76735 117.886 9.909 118.611 10.203C119.335 10.4971 119.991 10.9373 120.54 11.4964C121.543 12.5271 122.253 14.0153 122.606 15.8897H109.92ZM71.0726 5.6962C67.9515 5.6962 65.4033 6.84247 63.6701 9.26786V6.24718H59.2808V30.7273H63.8976V16.9523C63.8976 14.8787 64.4532 13.115 65.5379 11.8728C66.6223 10.6306 68.2576 9.88035 70.5244 9.88035C71.9295 9.88035 73.0289 10.3256 73.7779 11.0758C74.5269 11.8261 74.9552 12.9207 74.9552 14.2883V30.7299H79.5746V14.741C79.5746 12.1582 79.085 9.88528 77.7533 8.25688C76.4216 6.62849 74.2502 5.6962 71.0726 5.6962ZM106.379 6.31042L94.2521 18.5015L106.37 30.6862L100.251 30.6731L91.3975 21.7729C90.5353 20.9054 90.0506 19.7291 90.0506 18.5026C90.0506 17.2761 90.5353 16.0998 91.3975 15.2323L100.272 6.31042H106.379Z" fill="black"/>
</svg>
