<svg width="48" height="48" viewBox="0 0 48 48" fill="none" xmlns="http://www.w3.org/2000/svg">
<path d="M0 8C0 3.58172 3.58172 0 8 0H40C44.4183 0 48 3.58172 48 8V40C48 44.4183 44.4183 48 40 48H8C3.58172 48 0 44.4183 0 40V8Z" fill="#2B2F33"/>
<g clip-path="url(#clip0_230_1946)">
<path d="M16.7833 28.1668C16.431 27.5576 16.1571 26.9063 15.9683 26.2284C16.3794 26.0193 16.7246 25.7006 16.9658 25.3075C17.207 24.9144 17.3347 24.4622 17.3349 24.001C17.3351 23.5398 17.2077 23.0876 16.9668 22.6943C16.7259 22.301 16.3809 21.982 15.9699 21.7726C16.3466 20.4105 17.0639 19.1667 18.0541 18.1584C18.4408 18.4099 18.8896 18.5494 19.3507 18.5616C19.8119 18.5738 20.2674 18.4581 20.6669 18.2275C21.0664 17.9968 21.3942 17.6601 21.6142 17.2546C21.8342 16.8492 21.9377 16.3907 21.9133 15.9301C23.2817 15.5764 24.7176 15.577 26.0858 15.9318C26.0616 16.3924 26.1653 16.8508 26.3854 17.2561C26.6056 17.6615 26.9336 17.998 27.3331 18.2285C27.7327 18.459 28.1882 18.5744 28.6493 18.5621C29.1104 18.5497 29.5591 18.41 29.9458 18.1584C30.4283 18.6501 30.8566 19.2093 31.2166 19.8334C31.5774 20.4576 31.8474 21.1084 32.0316 21.7718C31.6205 21.9808 31.2753 22.2996 31.0341 22.6927C30.7929 23.0858 30.6651 23.538 30.665 23.9992C30.6648 24.4604 30.7922 24.9126 31.0331 25.3059C31.274 25.6992 31.619 26.0182 32.0299 26.2276C31.6532 27.5897 30.936 28.8335 29.9458 29.8418C29.559 29.5903 29.1102 29.4508 28.6491 29.4386C28.188 29.4264 27.7325 29.5421 27.333 29.7727C26.9335 30.0034 26.6056 30.3401 26.3857 30.7456C26.1657 31.151 26.0622 31.6094 26.0866 32.0701C24.7182 32.4237 23.2822 32.4232 21.9141 32.0684C21.9383 31.6078 21.8346 31.1494 21.6144 30.7441C21.3943 30.3387 21.0663 30.0022 20.6667 29.7717C20.2672 29.5412 19.8116 29.4258 19.3505 29.4381C18.8894 29.4505 18.4407 29.5902 18.0541 29.8418C17.5616 29.3392 17.1346 28.7764 16.7833 28.1668ZM21.4999 28.3301C22.388 28.8423 23.0556 29.6643 23.3749 30.6384C23.7908 30.6776 24.2083 30.6784 24.6241 30.6393C24.9436 29.665 25.6116 28.843 26.4999 28.3309C27.3876 27.8173 28.4337 27.6497 29.4374 27.8601C29.6791 27.5201 29.8874 27.1576 30.0608 26.7784C29.377 26.0146 28.9992 25.0253 28.9999 24.0001C28.9999 22.9501 29.3916 21.9693 30.0608 21.2218C29.8862 20.8427 29.677 20.4806 29.4358 20.1401C28.4327 20.3504 27.3873 20.183 26.4999 19.6701C25.6119 19.1579 24.9442 18.3359 24.6249 17.3618C24.2091 17.3226 23.7916 17.3218 23.3758 17.3609C23.0563 18.3352 22.3883 19.1572 21.4999 19.6693C20.6122 20.1829 19.5662 20.3505 18.5624 20.1401C18.3212 20.4803 18.1125 20.8425 17.9391 21.2218C18.6229 21.9856 19.0007 22.9749 18.9999 24.0001C18.9999 25.0501 18.6083 26.0309 17.9391 26.7784C18.1137 27.1575 18.3229 27.5196 18.5641 27.8601C19.5672 27.6498 20.6126 27.8172 21.4999 28.3301ZM23.9999 26.5001C23.3369 26.5001 22.701 26.2367 22.2322 25.7679C21.7633 25.299 21.4999 24.6631 21.4999 24.0001C21.4999 23.3371 21.7633 22.7012 22.2322 22.2323C22.701 21.7635 23.3369 21.5001 23.9999 21.5001C24.663 21.5001 25.2989 21.7635 25.7677 22.2323C26.2365 22.7012 26.4999 23.3371 26.4999 24.0001C26.4999 24.6631 26.2365 25.299 25.7677 25.7679C25.2989 26.2367 24.663 26.5001 23.9999 26.5001ZM23.9999 24.8334C24.2209 24.8334 24.4329 24.7456 24.5892 24.5894C24.7455 24.4331 24.8333 24.2211 24.8333 24.0001C24.8333 23.7791 24.7455 23.5671 24.5892 23.4108C24.4329 23.2546 24.2209 23.1668 23.9999 23.1668C23.7789 23.1668 23.567 23.2546 23.4107 23.4108C23.2544 23.5671 23.1666 23.7791 23.1666 24.0001C23.1666 24.2211 23.2544 24.4331 23.4107 24.5894C23.567 24.7456 23.7789 24.8334 23.9999 24.8334Z" fill="white"/>
</g>
<defs>
<clipPath id="clip0_230_1946">
<rect width="20" height="20" fill="white" transform="translate(14 14)"/>
</clipPath>
</defs>
</svg>
