<svg width="40" height="40" viewBox="0 0 40 40" fill="none" xmlns="http://www.w3.org/2000/svg">
<rect width="40" height="40" rx="20" fill="#1B1C1F"/>
<g clip-path="url(#clip0_236_3783)">
<path d="M20.479 18.6603L26.5593 32.0584H12.9946L19.075 18.6603C19.1367 18.5251 19.2356 18.4107 19.3601 18.3304C19.4845 18.2502 19.6292 18.2075 19.777 18.2075C19.9248 18.2075 20.0694 18.2502 20.1939 18.3304C20.3183 18.4107 20.4172 18.5251 20.479 18.6603Z" fill="white"/>
<path d="M19.7765 16.5834C22.1356 16.5834 24.048 14.6589 24.048 12.2849C24.048 9.91085 22.1356 7.98633 19.7765 7.98633C17.4173 7.98633 15.5049 9.91085 15.5049 12.2849C15.5049 14.6589 17.4173 16.5834 19.7765 16.5834Z" fill="white"/>
</g>
<defs>
<clipPath id="clip0_236_3783">
<rect width="13.6552" height="24" fill="white" transform="translate(13 8)"/>
</clipPath>
</defs>
</svg>
