<svg width="16" height="18" viewBox="0 0 16 18" fill="none" xmlns="http://www.w3.org/2000/svg">
<path d="M3.83333 4.00008V1.50008C3.83333 1.27907 3.92113 1.06711 4.07741 0.910826C4.23369 0.754545 4.44565 0.666748 4.66667 0.666748H14.6667C14.8877 0.666748 15.0996 0.754545 15.2559 0.910826C15.4122 1.06711 15.5 1.27907 15.5 1.50008V13.1667C15.5 13.3878 15.4122 13.5997 15.2559 13.756C15.0996 13.9123 14.8877 14.0001 14.6667 14.0001H12.1667V16.5001C12.1667 16.9601 11.7917 17.3334 11.3275 17.3334H1.33917C1.22927 17.3341 1.12033 17.313 1.0186 17.2714C0.916873 17.2299 0.824361 17.1686 0.746382 17.0912C0.668403 17.0137 0.606494 16.9216 0.564212 16.8202C0.52193 16.7188 0.500108 16.61 0.5 16.5001L0.5025 4.83341C0.5025 4.37341 0.8775 4.00008 1.34167 4.00008H3.83333ZM2.16917 5.66675L2.16667 15.6667H10.5V5.66675H2.16917ZM5.5 4.00008H12.1667V12.3334H13.8333V2.33341H5.5V4.00008Z" fill="#78767A"/>
</svg>
