<svg width="24" height="24" viewBox="0 0 24 24" fill="none" xmlns="http://www.w3.org/2000/svg">
<g clip-path="url(#clip0_230_3755)">
<path d="M0 4C0 1.79086 1.79086 0 4 0H20C22.2091 0 24 1.79086 24 4V20C24 22.2091 22.2091 24 20 24H4C1.79086 24 0 22.2091 0 20V4Z" fill="#535256"/>
<path opacity="0.08" d="M-4 4C-4 -0.418278 -0.418278 -4 4 -4H20C24.4183 -4 28 -0.418278 28 4V20C28 24.4183 24.4183 28 20 28H4C-0.418278 28 -4 24.4183 -4 20V4Z" fill="white"/>
<g clip-path="url(#clip1_230_3755)">
<path d="M12 12.7814L15.3 9.48145L16.2427 10.4241L12 14.6668L7.75732 10.4241L8.69999 9.48145L12 12.7814Z" fill="#ADAAAF"/>
</g>
</g>
<defs>
<clipPath id="clip0_230_3755">
<path d="M0 4C0 1.79086 1.79086 0 4 0H20C22.2091 0 24 1.79086 24 4V20C24 22.2091 22.2091 24 20 24H4C1.79086 24 0 22.2091 0 20V4Z" fill="white"/>
</clipPath>
<clipPath id="clip1_230_3755">
<rect width="16" height="16" fill="white" transform="translate(4 4)"/>
</clipPath>
</defs>
</svg>
