<svg width="16" height="16" viewBox="0 0 16 16" fill="none" xmlns="http://www.w3.org/2000/svg">
<path fill-rule="evenodd" clip-rule="evenodd" d="M7.99967 1.83325C4.59392 1.83325 1.83301 4.59416 1.83301 7.99992C1.83301 11.4057 4.59392 14.1666 7.99967 14.1666C11.4054 14.1666 14.1663 11.4057 14.1663 7.99992C14.1663 4.59416 11.4054 1.83325 7.99967 1.83325ZM0.833008 7.99992C0.833008 4.04188 4.04163 0.833252 7.99967 0.833252C11.9577 0.833252 15.1663 4.04188 15.1663 7.99992C15.1663 11.958 11.9577 15.1666 7.99967 15.1666C4.04163 15.1666 0.833008 11.958 0.833008 7.99992ZM7.99967 6.83325C8.27582 6.83325 8.49967 7.05711 8.49967 7.33325V10.6666C8.49967 10.9427 8.27582 11.1666 7.99967 11.1666C7.72353 11.1666 7.49967 10.9427 7.49967 10.6666V7.33325C7.49967 7.05711 7.72353 6.83325 7.99967 6.83325ZM7.99967 5.99992C8.36786 5.99992 8.66634 5.70144 8.66634 5.33325C8.66634 4.96506 8.36786 4.66659 7.99967 4.66659C7.63148 4.66659 7.33301 4.96506 7.33301 5.33325C7.33301 5.70144 7.63148 5.99992 7.99967 5.99992Z" fill="#78767A"/>
</svg>
